/* XPM */
static char *dynamiccoin___[] = {
/* width height num_colors chars_per_pixel */
"    64    64      256            2",
/* colors */
"`` c #040305",
"`. c #998627",
"`# c #dec244",
"`a c #cb8421",
"`b c #d8c496",
"`c c #cc9e74",
"`d c #c9a531",
"`e c #f9e494",
"`f c #fce44d",
"`g c #7e5826",
"`h c #eca418",
"`i c #d2c474",
"`j c #e3e4e1",
"`k c #999181",
"`l c #e58507",
"`m c #53451a",
"`n c #e9ca91",
"`o c #e7ac3f",
"`p c #f2c562",
"`q c #a49e3c",
"`r c #cc893f",
"`s c #c45c04",
"`t c #c9b63a",
"`u c #a98921",
"`v c #ecb410",
"`w c #ecf2dc",
"`x c #3f2307",
"`y c #f7d45e",
"`z c #fcd430",
"`A c #ca932c",
"`B c #cac5d7",
"`C c #c9a458",
"`D c #fcf399",
"`E c #e8d3bc",
"`F c #b4824c",
"`G c #c7b174",
"`H c #726418",
"`I c #fcf458",
"`J c #b97218",
"`K c #1c1e14",
"`L c #e5bd79",
"`M c #fbc427",
"`N c #f1e5d4",
"`O c #d77405",
"`P c #f5d47d",
"`Q c #e6dc98",
"`R c #f6c43c",
"`S c #806e12",
"`T c #c7b5a9",
"`U c #f6a50a",
"`V c #644214",
"`W c #e59518",
"`X c #d8d5d7",
"`Y c #a7953b",
"`Z c #fab417",
"`0 c #d8860e",
"`1 c #f3e47b",
"`2 c #b7752f",
"`3 c #a4731c",
"`4 c #eae9c1",
"`5 c #b0a984",
"`6 c #f9f4d8",
"`7 c #1c1913",
"`8 c #d9cf5c",
".` c #c4b24c",
".. c #d6a44f",
".# c #d99425",
".a c #daa521",
".b c #e8ba43",
".c c #c9bd71",
".d c #edc478",
".e c #c99944",
".f c #f7da95",
".g c #ba7b1b",
".h c #dcd69c",
".i c #e59a26",
".j c #f7db5e",
".k c #f9cc3c",
".l c #fcfefc",
".m c #f9f4b7",
".n c #edebf3",
".o c #7e7251",
".p c #443512",
".q c #cac3bc",
".r c #e9a82b",
".s c #fad444",
".t c #ced4f0",
".u c #121511",
".v c #a89e6c",
".w c #e1c660",
".x c #b8831e",
".y c #d78a20",
".z c #fbec75",
".A c #8a8462",
".B c #e0e5ef",
".C c #fab829",
".D c #59543f",
".E c #342e08",
".F c #695424",
".G c #e99c12",
".H c #d79c25",
".I c #e7bb5b",
".J c #d79a44",
".K c #593a14",
".L c #a7944f",
".M c #f5dc7c",
".N c #d9a935",
".O c #b8afb8",
".P c #e2c67a",
".Q c #f4cc5c",
".R c #fbf37b",
".S c #f8dba9",
".T c #faec98",
".U c #e9b82d",
".V c #f8ecd6",
".W c #f5ab21",
".X c #d9b457",
".Y c #fadc45",
".Z c #685438",
".0 c #4b4635",
".1 c #f7d095",
".2 c #c7730d",
".3 c #2e250d",
".4 c #fbcb24",
".5 c #b69423",
".6 c #f8e4bf",
".7 c #d8ac56",
".8 c #c79c59",
"#` c #3e392a",
"#. c #ac6410",
"## c #6c6350",
"#a c #ac9080",
"#b c #74723c",
"#c c #8a7b2a",
"#d c #d46604",
"#e c #b9ad61",
"#f c #9c935c",
"#g c #7c5e24",
"#h c #7e7d4c",
"#i c #a49e82",
"#j c #b19d7e",
"#k c #bcab37",
"#l c #b8b480",
"#m c #d9baa4",
"#n c #d6b478",
"#o c #a67d2f",
"#p c #dbbc7a",
"#q c #907448",
"#r c #b79754",
"#s c #bb670e",
"#t c #e5dcce",
"#u c #d8cab9",
"#v c #564c37",
"#w c #9c912c",
"#x c #b8b8cc",
"#y c #b9a135",
"#z c #dab630",
"#A c #8f6f24",
"#B c #aca6ac",
"#C c #d7d17f",
"#D c #b6a359",
"#E c #a4853c",
"#F c #b98c3c",
"#G c #caa86f",
"#H c #aa8c58",
"#I c #6a5c21",
"#J c #e5d0ac",
"#K c #e4b05c",
"#L c #c6bac3",
"#M c #c7b694",
"#N c #b5963b",
"#O c #906630",
"#P c #d4b694",
"#Q c #c87c16",
"#R c #988268",
"#S c #dfcb3f",
"#T c #d8cb96",
"#U c #524b1c",
"#V c #cbcddb",
"#W c #d77c09",
"#X c #dbdcdf",
"#Y c #dcd6bc",
"#Z c #fcfdb9",
"#0 c #493c0e",
"#1 c #8e7c50",
"#2 c #d8bc91",
"#3 c #a4927c",
"#4 c #ac7214",
"#5 c #bca27c",
"#6 c #0a0c0c",
"#7 c #c88d21",
"#8 c #fcec55",
"a` c #e68d11",
"a. c #c8ad57",
"a# c #bd7d34",
"aa c #f2cc7c",
"ab c #d6dcf0",
"ac c #e3ecf6",
"ad c #655d4a",
"ae c #746c4c",
"af c #988544",
"ag c #6e662c",
"ah c #eadaae",
"ai c #aa9772",
"aj c #2c2a27",
"ak c #707660",
"al c #fcfb5f",
"am c #f4be6c",
"an c #fce472",
"ao c #745224",
"ap c #947d24",
"aq c #c46a04",
"ar c #f4dec4",
"as c #2c1a04",
"at c #e4d25f",
"au c #343127",
"av c #643e19",
"aw c #cbab36",
"ax c #3e2d0e",
"ay c #ca9c2a",
"az c #fcfd9c",
"aA c #fcfdd6",
"aB c #c8bb56",
"aC c #b98c26",
"aD c #fcfd83",
"aE c #d9bc59",
"aF c #faecb8",
"aG c #cabc8a",
"aH c #b4b2a4",
"aI c #8c766c",
"aJ c #9a8e44",
"aK c #fcdc31",
"aL c #644d21",
"aM c #949098",
"aN c #ebf3fa",
"aO c #242116",
"aP c #7e6f28",
"aQ c #a27530",
"aR c #bca882",
"aS c #f4ba3f",
"aT c #5c5a54",
"aU c #f4be64",
"aV c #4c3a24",
"aW c #949070",
"aX c #b49e9c",
"aY c #b79667",
"aZ c #b8a148",
"a0 c #dab63f",
"a1 c #bcaa9c",
"a2 c #e4d384",
"a3 c #bba16e",
"a4 c #e8ab18",
"a5 c #c99144",
"a6 c #c9bba9",
"a7 c #f9ab0e",
"a8 c #fabd18",
/* pixels */
".l.l.l.l.l.l.l.l.l.l.l.l.l.l.l.l.l.l.l.l.l.l.l.l.l.l.l.l`6.V.V.6.V.V.V.l.l.l.l.l.l.l.l.l.l.l.l.l.l.l.l.l.l.l.l.l.l.l.l.l.l.l.l.l",
".l.l.l.l.l.l.l.l.l.l.l.l.l.l.l.l.l.l.l.l.l.l.l`6.6.6.f.f`e.T.T.T.z.T`e.M`P.f.6.6.l.l.l.l.l.l.l.l.l.l.l.l.l.l.l.l.l.l.l.l.l.l.l.l",
".l.l.l.l.l.l.l.l.l.l.l.l.l.l.l.l.l.l.l.l.V.6.f`e.Taz#Z#Z`D`e`1a2.Mat.Man.z.R#8.j`y.f.6`6.l.l.l.l.l.l.l.l.l.l.l.l.l.l.l.l.l.l.l.l",
".l.l.l.l.l.l.l.l.l.l.l.l.l.l.l.l.l.l.6.f.f`D#Z#Z`Q`Ga.aZaZ#yaZaw`d`d#k#y#y`d`d`R.j`f.saa.S.V.l.l.l.l.l.l.l.l.l.l.l.l.l.l.l.l.l.l",
".l.l.l.l.l.l.l.l.l.l.l.l.l.l.l.l.V.1`e#ZaA`Qa3#r#yaw`#.Y.j`I#8#8#8#8`f.Y.k#zaw#y.5`A.UaK.Y`R.1.V.l.l.l.l.l.l.l.l.l.l.l.l.l.l.l.l",
".l.l.l.l.l.l.l.l.l.l.l.l.l.l.l.1`P#ZaA.c#r`Y`t.Y`I`I`I`f`f`f`zanat`z.Y.Y.j`f`f`f`zaw.5aC.a`f.Y`p.S.l.l.l.l.l.l.l.l.l.l.l.l.l.l.l",
".l.l.l.l.l.l.l.l.l.l.l.l.l.6.1.TaA#T#E.5#S`I`I`fan`e`z`f`y.jan.T.M`f.Q.k.4.j.s`y.baK.Y.U.5.xa0`I`yam`N.l.l.l.l.l.l.l.l.l.l.l.l.l",
".l.l.l.l.l.l.l.l.l.l.l.l.S`P#Z.m#H`u#Sal`I.Y.Y`f.z#Z`D`i.k#Sa2.z.R`i#z.san.j.Y.b.N`z`M.k.Y.U`u#F`1az.d.S.l.l.l.l.l.l.l.l.l.l.l.l",
".l.l.l.l.l.l.l.l.l.l.l.f.MaA`baQ`tal.R.s.s`f.s.P`4aD`Da0aK.4.j`1`y#z.4`R.X.s.Y#S`M`R.C.k.b`M`z.HaQ#T#Z.1`n.l.l.l.l.l.l.l.l.l.l.l",
".l.l.l.l.l.l.l.l.l.l.1`eaAa3#o.Yal`z.z`D.z.P.s.U.j.T`i.Q.k.k.w.Na0a0`M.k`v.ka0.N.r`R`y.s.k`y.X.4a8#4a1.l.f`L.l.l.l.l.l.l.l.l.l.l",
".l.l.l.l.l.l.l.l.l.1`e#Z#r`u`I#8`z.Y`D#Z.m`#`z`z.j.`#za0`M.k`v`M`M.U`MaS.s#z.a`R.C.Ua0`y.R.w.H.CaSa8`J#a.l.S`L.l.l.l.l.l.l.l.l.l",
".l.l.l.l.l.l.l.l.San#Z#H.5`IaK.4`z.w.h.R.T`P`R`z.U.U.4`M`M.4.s`y.s.s`M`M`Z`Z.C`MaS.C.C.Ma2.P.W.C.W.W`M#Q#a.l.f`b.l.l.l.l.l.l.l.l",
".l.l.l.l.l.l.l.6`P#Z#raCal.s.4`y`y`M.U`e`t#z.b`M`M`z.j.M.M.1aa.P`L.P.Paa`P`y`R`Z`Z.W`R.X.#.7`o`Z`hah.Ha7.2aYaAaa`E.l.l.l.l.l.l.l",
".l.l.l.l.l.l.Vaaaza.`u#8.4`e`D`Q.N`z`za0.U.4.4.k`P`P.P.7.7a.#G#G#G`C.8.8...7`LamaS.C.W.i.Ca7.G`n.VaA.faU.W#s`G#Z`L`N.l.l.l.l.l.l",
".l.l.l.l.l.l.1aD.P`3aK`z`M.zaz.zan.k.C.C.4.kaa.P...e.7`b#t.n.n.n.nac.n#t`b`ca5`A.7.7.r`Z.r.r.G.N.laA.V#G`Wa7#..P.R`L.l.l.l.l.l.l",
".l.l.l.l.laran.zap`M.Y`M.ka2anan.Xa0`M.4.Q#n.J`A#n#taNaNacac`jac`j.n`j.Bacacab#2.e.#...e`h.W`WaU`E`4.P`O`h.ra``3.z.Q`E.l.l.l.l.l",
".l.l.l.l`6aaaD#N.H`fa8`M`R.N`p`ta4`M`Maa`C#7.7#XaNaN.B.n.B.n.naNacacac.B.B`Nacacab#M`h.Na5.i`h...y.#`C`0.i`0.r.2aC`I.X.n.l.l.l.l",
".l.l.l.l.S#8.w#4aKa8`Raa`Z.4.C.Na8`M.d.e.y#uaNaN`j.nacaN.l`6`Nar.6aF`6.laN.Bac`j.Bac`B`o.Ua5.y.G.G`W`0`o.y#K.J`W#..U`z#J.l.l.l.l",
".l.l.l`6aaal.x`v.Q`yanat.U`R.C.C`M`n`A.e#XaN`j.naNaN.V#n#1.F.p.p`m`V.Zaf`L.6`N.Bac#tac.t#n.ka5`0.i.#.y.b.j.z.Ha``a`JaK.b.n.l.l.l",
".l.l.l.S`fa0.x.Y`Z.wan.Y.j.N.C`Zaa.e.e.BaN`jacac.6#Gao``````````````````as`g.7.1.taN#XaNaN.I#Sa5`0.i#W.r#8.k.Y.Ja``J.a`M#u.l.l.l",
".l.l.laa`IaC.r`M.C.s`y.Y.N.a.W.Q..`A.Bac`jac.n.1`g````.u`7`K`K`K`K.u`K.u#6```7#FaU#u.l.l.laN.Qata#`0.#.I.U`z.H`a.y#Q.g.4.IaN.l.l",
".l.l.V.s`R.x`MaS.C.X.H.N.r.C.C`L#F#t.B.B.B`N.1#0``#6`K`7.u`K`7`K`K`K`7`K`K`7````aPaU#J.l.l.l.n.jaE`J`W#Q#Q.H#Qa`.y.i#s`h.U#t.l.l",
".l.l.S`f`A#7.k.W.W.W.C`h.a`Uaaa5#Pac`j.n.B.f.p``.u`K.u.u.u.u.u.u.u.u`7.u`K`K`K#6``#I`p`E.l.l.lar.z.8`O`W.#`a`a.y`a.i.2#Q`Z#T.l.l",
".l.l.QaKaC`h.W.C.I`h.r.C`haS#n.eaNab.n#XaFao```K`7#6#6.u.u#6`7.u````#6.u`7`K`K`K.u``aeaa#t.l.laN`eat`2a``ra`.r.#.r.J`a`J`U.X.l.l",
".l.V.Q`M.x.CaS.k.k`R.b.i.G.d..#u.B`j.B`6aY``.u#6.3#c`S`S#w`8`8a2ah#i#U#6.u.u`K`K`K.u``#H.SaN.l.n#t.R.8.2a``a.iaS.r#Q.i.2`0..`N.l",
".l.6.Y`d`a`Z.N.Q.Y.Y.e.i.W`L.7acab`j.nah`7```K.u.uaP#y#k`i#hag#h#iaA.l#lax``.u`K`7`K```K.P`NaN#X.t.T.w`Ja`..`o.G.ia`.i`a.2.i#t.l",
".l.S`f`A`a.Ca`.Q.jat.#.G.I#n#pac#t.BaA.o```K`K`K``.u#w`t`q``ajau.3`7`k.l`1.3```K`7`K`K``.oaFab#t#Vah`e#F`l.#`a.i`0`a.#.y.2`W#T.l",
".laa`f`A.y.r.raE#7.7.H`lam#p#Jab.B.n#t`K```K`7`K#6aO#w`taJaO#vadak##```5aA.j`K#6`7`K`K#6`K`b#X#X#V`X`D#r`0`W.i#Q#Q.i.i`h`J`0#p.l",
".laa.z.x`W`h.i#W.G`W.y`W`L.P`jab`j.l#e``.u`K`7`K#6aO#waw`Y`K.0.Dadae#v#vazaD`.```7.u`K.u``.A`N`j#V#V`Da.#Q.i.i`W.i.r.i.r#Q`0.7.l",
"`6.f`e.x.i`W`o.b`O`W.i.y.waa.B`X`j.l.A```7`K.u`K#6.3`.#kaJaO.0.Dad##ad.0#CaDaB.u.u`K`7`K``aear#X`X#V`D.X.g.W.G.r.i.r.W.W`a#W.7aN",
"`N.f.Ta#`W#W.raA.d#2.ya`.waa.B#X.BaA.D```K`K`K`K#6aj`.#yaJ`K.0.Dad#####`#e.Rat.p```K.u`K``.Z.hab`X#V.T#p.x.W.W.r`a`o.Ja4.y`0.7.n",
"`N.f.m`2`l.7.V#Z.l.8`O.#.d`Pab#X.B.m.0```K`7.u`K#6aOap`q`.`K.0.Dadad###`#D.zat#U```K`K`7``#U#Tab#X#V`e.waC.W...i`W.y.y`M.#.y.7`j",
"ar.f`6`2`W`r`baA.l`L#W.y`p.jab#X.B.m#U```K`K`K`7#6aOap#waf`7#`#vaTadad#`#e.zat#U``.u`K`K``#`aG#X#X#V.T.waC`Z.y.y.r.#.r`M.#.Ga0#t",
"`N`eaAaQa``O`o`Ea#..`r.y`p.jab#XacaF`m```K`K`7`K.u.u`H#w#c`7#`#vadadad#`#eaD`f.E#6`7`K`K``#U.cab#X#V.TaB.x.Ca8aS#7.a.H.C.a`h.X.n",
".V.SaA`F#W.y.#`2`l#W`0#W.I.j#X#Xacar`m```K`7`K`7.u``.Fap`S.uau.0aTadaTaV#CazaB#6.u.u`K`K``.FaG.B`X#V.z.`.x`M.C.r.r`M.C`M.H.C.I.n",
"aN.1aA`F#W.y`Wa`.2`0.J#W.7.s#Yab.n`N#I```7`K.u`K.u``#0`SaP#6aj.0#vad.0`m#Zaz`H```K.u`K`7``.FaHaN`X#Van#N#7`M.CaS`M.C`M`R.a`M#paN",
".l`naA.8aq.##W.f.I`L.J#Wa5#S`b.B.B`j#1.u.u`K`K`K````#0`S`H```K#`.DaT``#i.l`t``.u`K`7`K.u`K#I#LaNab.q.sapa4.4`R`R.U.s`R`M.a.k.c.l",
".l#Jaza.#s`W#W.f#Z`1#Wa`a#a0.P.t`j.l#j.3#6`7`K`K``#6#0#I`H````#6`7#6aW.laG.u#6`K.u`K`K#6.3ae`j`j.taGawaP`M.b`y.k.s.b.UaS.U.4#m.l",
".l`E.z.P#sa`#n`1.Y`f.b.y`0#r#k`B.l.l#V.K.u.u`K`K.u.3ax#0#c#cag`H#wah.l.A#6#6`K`7`K`K.u`K.3aM.l#X`BaE#c`3`f.N.CaK`M`d.s.b`v.b#u.l",
".l`Naa`1#4a``a.y.j`A.#.#`UaQ`q#M.l.l.laI.u.u`7.u.p#0.3as`m#c`.aZ.caMaj``.u`K`K`K.u`7#6.p.0.n`jac#B#yaL.NaK.s`R.N.H.U#8a0.Ca0`X.l",
".l.l.P#8#F#W.i`W`A`0.ia``h#QaJ.L.t.l.l.Vav#6.u`K#6``````````#6#6````#6`K`7`7`K`7`7.uau`xaH.l#X.t#D#AaL#8.k.sa0a0.b.7.j.Na8`GaN.l",
".l.l#J.Y.N`J`h`W.#.i.y`o.i.W#OaJ#3.l.l.l`E.K``.u.u.u.u.u`K.u`K.u`7.u`K`7`K`7`K`7#6aO`x`k.l`X.laMaC.p.N#8.s`y.Q`f.j#8aa.a.Wa6.l.l",
".l.l#taS.4`J.i.i.i.CaS.b.#.W`0#1`Y.O.l.l.l`Eav``#6`K`K`K`K`K`7`K`K`K`7`K`K`K.u#6.E`x.A.l`j.n#x#F#I.Fal.k.z`o.baD.j.zaE.G.H`X.l.l",
".l.l.l#paKaC`0.W.#.W`M.W.W.r`M`JaJ#N#V.l`j.l#t#Oas#6#6.u.u`K`K`7`K.u`K`K.u#6.u.p`V#i.l`j.B.t#H#7ax.j.z`o.r`W.r.I.M.T.J`U#GaN.l.l",
".l.l.l#u`Ma4.g`Z`o.b`h.W.#.#`Z`ZaQa0.8.t.B`XaN`j#5.Fax.u#6``#6#6#6#6#6#6.uas`V.o.q.l`j.B.BaY.r.KaZaDan.M`l`W#W.8.ma2`0.#.q.l.l.l",
".l.l.l.n.X.4#Q.G.C.#.#`a.H.C`v`Ma4#o`p.7`B.t`XacaN#YaR#qaL#0ax.EaO.E.p.p.F#RaHac.l#X.Bab#G.Cao#1aD.M`D.I`a.2a5#Z#Z`Aa`.8.n.l.l.l",
".l.l.l.l#u`Z.H.x.C`Z.C#7.C`MaS`o.4a4#o`p.b#L.t`X`j.nac#X#u#M#5ai#Hai#ja6#Vac.l.n#X.Bab.7.C`g#baz`D`D.T`L.T#T.JaA#T`O.ya6.l.l.l.l",
".l.l.l.laN#n`Z#Q.a`M.Ca8`o.C`o`a.k.Y.a#E.I.s`b#V.t#X#X`w.nac.B.B.B.BaNaN`6`j#X.Bac#uaS`oao#h#Z.Qaa.M.J#Z.T.m#Z`w#Q`laYaN.l.l.l.l",
".l.l.l.l.l#t.H.G.g`M`M`M.U`a.y.y.y.a.Y.U#E#D.j.j#u#V.t.t#X#X`j`j`j`j`jab.B.Bac#t.d`M#N.Z#iaz#Zaa#W`O`raA.m.m.l.8`O#7`X.l.l.l.l.l",
".l.l.l.l.l.l#m`h#WaC.s.C.s.r#d.y#7`R.kaKaK.5#HaB`f.z.f#Y#Xabababab.B.B.B#tah`P`R.eaeae#T#Z.T.m.f`O`0#W`AaF.l`b#d.ya1.l.l.l.l.l.l",
".l.l.l.l.l.laN#G`Waq`daK.ka5ay`J.b`f.s.b`R`I#S.L#f#D.wan.zan`e`e`e`e.M.M.Q.7#E.oak`5#Z#Z.maA.m.8`r#W`C#uaA#t#sa`aY.n.l.l.l.l.l.l",
".l.l.l.l.l.l.l`N.8a`#s#z.Y`R`f.b`o.Yan.WaS`y.Q`I.Q#D#f#f#r#DaZ`C`d#r.L#E#1.AaWaG#ZaA.f.JaF`L`naA.la5#J.l`j`Ja`#N`X.l.l.l.l.l.l.l",
".l.l.l.l.l.l.l.l`X`Aa`#s`t`I.k.Y`f.X.r`R`M`d.w`eanaD`D.M.c.v.v`5#j.v#i#l#T#ZaA#Z.maA#Z#W`Oa#.laAaA`6.l#t.2a`.e`B.l.l.l.l.l.l.l.l",
".l.l.l.l.l.l.l.l.l#u.ea`.2.`.z.j`y`P`p`M`v`p.T.T`y`R.T`P.Tazaz#Z#Z#Z#Z#ZaA.d`n.l#Zar`r`0.H.G.6aA#Z.l#t.g`U#N#L.l.l.l.l.l.l.l.l.l",
".l.l.l.l.l.l.l.l.l.l#u.e`U`0.e`1.R.z.QawaE.7`e`D`y.W`ha..m.m.l.d.X.l#Z.m.l.i#W#K#Par#P`o.#`C#naA.l`T#Q`U#r`T.l.l.l.l.l.l.l.l.l.l",
".l.l.l.l.l.l.l.l.l.l.l#u.8`Z`h#N#C#Z`P`Q`D`e`e.X.G.C`laaaA`nam.i`0`L#J`N`r`a`W.2#YaA.l`n`C.l.l.n.8a``Z#r#L.l.l.l.l.l.l.l.l.l.l.l",
".l.l.l.l.l.l.l.l.l.l.l.l`Xa3.U.4.aa.`4#Z.T.TaF`4.d`0`r.J.V`E.2`0`l#s`E`6#m.i`0`a.6aAaA`6.l.l`b#7a7#z#a#V.l.l.l.l.l.l.l.l.l.l.l.l",
".l.l.l.l.l.l.l.l.l.l.l.l.l.na1`daK`vawaG`4aA#ZaA`PaY.laFaF.l`n`s`s#2.laA.l.J#G`b`b.l.l.l#J.8.G.U`C#j.B.l.l.l.l.l.l.l.l.l.l.l.l.l",
".l.l.l.l.l.l.l.l.l.l.l.l.l.l.l#L#5`#.4`v.N#2#YaA.laAaAaAaAaA.7#P#m`caAaA#Z`E.l.l.l`4#2.e.a`v.N#j#L.l.l.l.l.l.l.l.l.l.l.l.l.l.l.l",
".l.l.l.l.l.l.l.l.l.l.l.l.l.l.l.l.n`T`C#za8`U`W`C`b#t`waA.l.l.l.l.l.l.l.l.l.l#t`b.7.#a4`v.Na3.O.n.l.l.l.l.l.l.l.l.l.l.l.l.l.l.l.l",
".l.l.l.l.l.l.l.l.l.l.l.l.l.l.l.l.l.l.n#L#5`d.G.G`l`0.ya5..#n`b.P`b.P#n...e.H`W.Ga4.aa.aR#L.B.l.l.l.l.l.l.l.l.l.l.l.l.l.l.l.l.l.l",
".l.l.l.l.l.l.l.l.l.l.l.l.l.l.l.l.l.l.l.laN`Xa6`c.e.##W#W#W`O`O`O#W#W`0a``W.H`da.#5a6`BaN.l.l.l.l.l.l.l.l.l.l.l.l.l.l.l.l.l.l.l.l",
".l.l.l.l.l.l.l.l.l.l.l.l.l.l.l.l.l.l.l.l.l.l.laN.B#u#u#M#G`C.8.8.8`C#G`GaG.q#u`XaN.l.l.l.l.l.l.l.l.l.l.l.l.l.l.l.l.l.l.l.l.l.l.l",
".l.l.l.l.l.l.l.l.l.l.l.l.l.l.l.l.l.l.l.l.l.l.l.l.l.l.l.l.laN.n.B`NacaN.l.l.l.l.l.l.l.l.l.l.l.l.l.l.l.l.l.l.l.l.l.l.l.l.l.l.l.l.l"
};
