/* XPM */
static char *dynamiccoin___[] = {
/* width height num_colors chars_per_pixel */
"    32    32      256            2",
/* colors */
"`` c #040304",
"`. c #98844c",
"`# c #d9c547",
"`a c #ccc694",
"`b c #c9841b",
"`c c #d2a512",
"`d c #f1e399",
"`e c #c9a571",
"`f c #845604",
"`g c #fce640",
"`h c #e4e6cc",
"`i c #eca20c",
"`j c #ccc254",
"`k c #e49214",
"`l c #473b24",
"`m c #dcf2cc",
"`n c #cc8a34",
"`o c #e7b323",
"`p c #c99319",
"`q c #e4d28c",
"`r c #e8d430",
"`s c #1f1f14",
"`t c #c7b569",
"`u c #c45204",
"`v c #fbf4ce",
"`w c #e6b34a",
"`x c #f8c46c",
"`y c #bca228",
"`z c #f3c227",
"`A c #5c5624",
"`B c #d89412",
"`C c #f8f5f1",
"`D c #f8e9d0",
"`E c #deb46c",
"`F c #c26d06",
"`G c #f5b42c",
"`H c #ecf294",
"`I c #d8d2c4",
"`J c #c4b634",
"`K c #e5c793",
"`L c #eca737",
"`M c #d48504",
"`N c #dfe4f1",
"`O c #d49524",
"`P c #efc437",
"`Q c #e07404",
"`R c #111412",
"`S c #eee2be",
"`T c #644a1c",
"`U c #343124",
"`V c #b48634",
"`W c #d1c5af",
"`X c #fcf664",
"`Y c #e9a426",
"`Z c #e4d274",
"`0 c #ccb28c",
"`1 c #d8a450",
"`2 c #fcfcd1",
"`3 c #f2d362",
"`4 c #b4a98f",
"`5 c #f0e270",
"`6 c #dcca54",
"`7 c #ebbc2f",
"`8 c #c2790a",
".` c #e8d6c4",
".. c #d98a09",
".# c #e2ecfa",
".a c #eaad28",
".b c #3c1e04",
".c c #f4fbfb",
".d c #fcbc20",
".e c #f0cb44",
".f c #543e24",
".g c #ecd698",
".h c #f4da1c",
".i c #6c6234",
".j c #d79d24",
".k c #1f1304",
".l c #dcbb8f",
".m c #eddb7f",
".n c #d1cb94",
".o c #d4aa0c",
".p c #473f34",
".q c #d79d0d",
".r c #e2c279",
".s c #f8d546",
".t c #e4951c",
".u c #e7b32d",
".v c #d0b678",
".w c #f9f4e0",
".x c #bca254",
".y c #e4bc68",
".z c #d4b224",
".A c #dc9424",
".B c #f4eaac",
".C c #fadc4a",
".D c #080b0c",
".E c #948e4c",
".F c #e0cc30",
".G c #c78d17",
".H c #ecea9f",
".I c #e4ae64",
".J c #7c721c",
".K c #ece8dd",
".L c #d49637",
".M c #242228",
".N c #fcc420",
".O c #fbf3c0",
".P c #a49e6c",
".Q c #fced6f",
".R c #cc7810",
".S c #fcfefb",
".T c #efd9a7",
".U c #d4ac68",
".V c #e8bd3e",
".W c #d4d4d8",
".X c #e4ceac",
".Y c #e8ac54",
".Z c #d78517",
".0 c #d47d0e",
".1 c #c4beac",
".2 c #ecedf9",
".3 c #f4ad29",
".4 c #fccd3f",
".5 c #4a441c",
".6 c #eaf4fa",
".7 c #cc9e10",
".8 c #2c2a14",
"#` c #cebb64",
"#. c #8c7a5c",
"## c #ac9624",
"#a c #646224",
"#b c #7c6644",
"#c c #888278",
"#d c #9c7604",
"#e c #6c6654",
"#f c #bc9e24",
"#g c #c06108",
"#h c #745e04",
"#i c #b4b284",
"#j c #f0ce58",
"#k c #544d3f",
"#l c #d09e58",
"#m c #d0c67c",
"#n c #dcb244",
"#o c #9c9478",
"#p c #ac9e54",
"#q c #fcfd98",
"#r c #d9cbb1",
"#s c #d4d2b4",
"#t c #88660c",
"#u c #745a3c",
"#v c #e49a0c",
"#w c #a48e24",
"#x c #ecda64",
"#y c #dca424",
"#z c #dcab24",
"#A c #d4bc8c",
"#B c #746818",
"#C c #6c5c24",
"#D c #ccb24c",
"#E c #e6dcd6",
"#F c #645a4c",
"#G c #dc9e44",
"#H c #cc6404",
"#I c #645234",
"#J c #d8ab4e",
"#K c #dfcc7c",
"#L c #ea9d22",
"#M c #dcbe34",
"#N c #dabd42",
"#O c #e4c341",
"#P c #fce68f",
"#Q c #d4b68c",
"#R c #dccc96",
"#S c #ecbe64",
"#T c #fcedb8",
"#U c #fcee91",
"#V c #f4be4c",
"#W c #948664",
"#X c #f4a204",
"#Y c #cc7109",
"#Z c #342909",
"#0 c #ecfdfc",
"#1 c #fce558",
"#2 c #fcf2ac",
"#3 c #e4d684",
"#4 c #dcc494",
"#5 c #d4a22c",
"#6 c #d4a664",
"#7 c #2c2106",
"#8 c #fce66c",
"a` c #ccac2c",
"a. c #e0ca48",
"a# c #c89c2c",
"aa c #9c764c",
"ab c #ecca74",
"ac c #fcde6c",
"ad c #9c8a5c",
"ae c #bcaa34",
"af c #f6eedc",
"ag c #3c361c",
"ah c #1c1a12",
"ai c #b8aa48",
"aj c #746e3c",
"ak c #b4ba8c",
"al c #fce2b4",
"am c #8c722c",
"an c #140c04",
"ao c #f49c04",
"ap c #b4922c",
"aq c #fceb7f",
"ar c #e4d3b4",
"as c #d4beac",
"at c #fcfe74",
"au c #eceedc",
"av c #fcca2c",
"aw c #cc7e04",
"ax c #dcdac4",
"ay c #e8ce94",
"az c #bc7e04",
"aA c #ecdec8",
"aB c #f2de94",
"aC c #4c463c",
"aD c #d4be84",
"aE c #ecdeb4",
"aF c #c46604",
"aG c #5c5234",
"aH c #b9a537",
"aI c #efc349",
"aJ c #c4b6a0",
"aK c #fbfce2",
"aL c #e0c966",
"aM c #db8d19",
"aN c #f7bc2f",
"aO c #dfbb77",
"aP c #f0eec4",
"aQ c #ac9a84",
"aR c #d0ae7c",
"aS c #bcb69c",
"aT c #d4ccc4",
"aU c #141a14",
"aV c #5c462c",
"aW c #d09e3c",
"aX c #dcdad4",
"aY c #c4ba54",
"aZ c #6c6254",
"a0 c #e0e6e4",
"a1 c #e4aa0c",
"a2 c #d49234",
"a3 c #ecae3c",
"a4 c #e4da64",
"a5 c #a4963c",
"a6 c #ccce7c",
"a7 c #343634",
"a8 c #bcaa5c",
/* pixels */
".S.S.S.S.S.S.S.S.S.S.S.SaKaK.O#T#T.O`2aK.S.S.S.S.S.S.S.S.S.S.S.S",
".S.S.S.S.S.S.S.S.S.w.O.T#KaLaL`6#O`##M`w#j#P.w.S.S.S.S.S.S.S.S.S",
".S.S.S.S.S.S.S.w.Oay#``j`#.F.s`r.C.s.V#M.z`c`7#P.w.S.S.S.S.S.S.S",
".S.S.S.S.S.S`vaB`t`J.F`g#q.Q.e#U`5`P#1#1av`7.7`c.m`D.S.S.S.S.S.S",
".S.S.S.S.S.O`Kai.Fat#8.e.H`Z`z#j#NaNa..V.u.s.C#ya##R`D.S.S.S.S.S",
".S.S.S.S.O#4`y.h.C.O`d`z`z`Pav`z`zav.d`G`G#j`q`G#X`b#r`D.S.S.S.S",
".S.S.S.w`Z#f`gaqaI#O`Pav`P#V.r.r.l`E`w`o`G`G`Ya3#T#V`bay`D.S.S.S",
".S.S.S.m`y.Nac.H`P.N`G#J#A#r`N.6.2`NaT`0aW#vaoa3#0`K`Q.G.m`C.S.S",
".S.S#2a``o.4aN.uaN.u.x#r.c.S.S`D.K.S.S#0.W.U...A.A.A`L`b`B#P.S.S",
".S.SaI.7.s.Q.V.da3`e.#.S`D#.`l`s#Z.f`.al.S.##3`p`Q`L`X`L`F.zaK.S",
".S#2`c.aaN#O.a.3`e.#.S#Q.k````````````.b`E.S.S.m`b.Z.z.A.R`MaB.S",
".S`3.q`G.3#L.3#J.W.S#4````.D`s`l`s```R``anaO.S.SaL#Y.0aM.L#Y`w.S",
"aK.u...4#1`Y#L`W#0.w#Z``.5##a5.E#i#o```R``#7`v.caP`O.Za3#L.R`b.w",
"`2#z...u#N.t`w.W.S#o``.Dah`#aj`saC`I#m```R``#W`Ca0.y.Z.ZaMaM.R`S",
".O#n.Z.t.Z.A.ra0.S#k```Rahae.i.p#FaC#q#B````agaf.##m..#L`Y`Y`Fay",
".O#J.0`v.T.0ab.#.w`U``.D`s`y#aa7#eaCa4ai````.8ax.#.n`O#L`O.a..`K",
".w`E#Y.`aO.0`3.#.K#Z.D`R`R#w`A`UaZaC#xai````#7#s.##K#y`Y.A.a`i#4",
"aK#Q#Y.0#Y.Z#S.6af#Z```s``#B.5.M#kaC#q#a``.D.8`I`C#`.q.N`G.da1.T",
"aKaO#g#V#U.Z`O`h.SaG``aU``#h.5`R`l`W`4```R``aga0.Kap#y.sav`7.a`h",
".waL`8`w#x`k`8#i.S`4```R#7#Z#h.J.P#c```RaU``#c.S`4#d.s`7.u#O.aa0",
".S.m`B.Z.Z#L`Bam`N.S#u``.D.D`R.8ah```R`R```l`C.2`T`y`X#O`3`P#J`C",
".SaB.q.Z.3aN.3az#W`C.S#b````````.D.D````aVaf.Saa#t#1.3.V#q.qaO.S",
".S`C#y`B`G.A`Y.N.GaR.#.SaJ#I#7`Ran.k`laQ.S.S#6`f`Haq#H`E.m.R.2.S",
".S.Say`M`o.3.a`G`o`p`taX.c.cax.1aJaT.6.S.S`1#ta6#P.g.gaP.Z`e.S.S",
".S.S.Sa2`M`g`Y#g.a`ra`#D.naA.c.S.S.S.w#4`V`.`m#U`u#G.S.I`F.6.S.S",
".S.S.S.K`F.q.C.j.V.s.4#`aY#`aY.v.v.x.x#pak.BalaE#G.X`K#gaX.S.S.S",
".S.S.S.S.X#g#zatac.a.aaq.Q`Z#m.n.n`a.XaPaK.A#H`2.S`K`F`W.S.S.S.S",
".S.S.S.S.S.Xaw.u.H.m.maBao`L`2`x`xaK.Y.0aA`K.r`C`E`8as.S.S.S.S.S",
".S.S.S.S.S.S#Ea#.o.maKaK`E`Kaf#YaF.2`E.L.S.SaE#5.G`I.S.S.S.S.S.S",
".S.S.S.S.S.S.S.2#A`c.j#S`SaKaK#E#EaK.w`S.r#y`paR.#.S.S.S.S.S.S.S",
".S.S.S.S.S.S.S.S.S`N`Ka2`b`b`n`1.Y.L.La#aW#A`N.S.S.S.S.S.S.S.S.S",
".S.S.S.S.S.S.S.S.S.S.S.c.Kar.laRaR#4ar.K`C.S.S.S.S.S.S.S.S.S.S.S"
};
