/* XPM */
static char *dynamiccoin___[] = {
/* width height num_colors chars_per_pixel */
"    16    16      256            2",
/* colors */
"`` c #ffffff",
"`. c #f0e7d1",
"`# c #e8db98",
"`a c #efde84",
"`b c #efda76",
"`c c #ead581",
"`d c #f2e2ab",
"`e c #fffffe",
"`f c #f3ecde",
"`g c #d6c76c",
"`h c #ddcf4a",
"`i c #e4d652",
"`j c #edd443",
"`k c #ecd03f",
"`l c #e5c324",
"`m c #e0b006",
"`n c #ddb62e",
"`o c #f3efd5",
"`p c #ece6cb",
"`q c #d1b52d",
"`r c #e7db52",
"`s c #fde75b",
"`t c #f7cf39",
"`u c #efbf30",
"`v c #eebd2c",
"`w c #faba14",
"`x c #fbcb42",
"`y c #e5b828",
"`z c #d79c23",
"`A c #efe8e0",
"`B c #f5f2db",
"`C c #d3ae1b",
"`D c #f4da4b",
"`E c #fbce41",
"`F c #e3ac23",
"`G c #fbd67f",
"`H c #ffffdd",
"`I c #fffbda",
"`J c #f2cf89",
"`K c #dd9810",
"`L c #f1ae37",
"`M c #eebc73",
"`N c #cb871b",
"`O c #f6f7d8",
"`P c #debd45",
"`Q c #ecc023",
"`R c #fac431",
"`S c #dea52f",
"`T c #fdedd5",
"`U c #cfccd8",
"`V c #787987",
"`W c #838184",
"`X c #d7d3d3",
"`Y c #feefd4",
"`Z c #da9a29",
"`0 c #e29a27",
"`1 c #df990f",
"`2 c #d5a028",
"`3 c #fffffd",
"`4 c #f4e9b5",
"`5 c #e7a903",
"`6 c #fabe31",
"`7 c #de9d1e",
"`8 c #f9f3f1",
".` c #b8b5b7",
".. c #0f0400",
".# c #0e0b00",
".a c #000000",
".b c #c0b3a6",
".c c #fffffa",
".d c #d38f14",
".e c #dd931d",
".f c #ce7200",
".g c #f1deae",
".h c #eaca72",
".i c #e09800",
".j c #eca20b",
".k c #eecc9b",
".l c #dbe8f4",
".m c #59510c",
".n c #918844",
".o c #979482",
".p c #2d3124",
".q c #dde7ed",
".r c #efdaab",
".s c #d97f00",
".t c #d57c00",
".u c #d9a965",
".v c #e8c16b",
".w c #db9d44",
".x c #e0a441",
".y c #fff9d1",
".z c #8d9599",
".A c #796f28",
".B c #6c6139",
".C c #756e5d",
".D c #c8bf5a",
".E c #797d83",
".F c #ffffe5",
".G c #db9111",
".H c #df8803",
".I c #dca247",
".J c #e5c48e",
".K c #d38f4b",
".L c #dc9c41",
".M c #fffdc4",
".N c #818787",
".O c #554c10",
".P c #4c4322",
".Q c #736c61",
".R c #c5bb63",
".S c #6f7374",
".T c #fffcd5",
".U c #e3a10e",
".V c #f5ab0b",
".W c #e8bb4f",
".X c #e4cc9a",
".Y c #d48d16",
".Z c #e39914",
".0 c #e1c082",
".1 c #b8c2d0",
".2 c #1e1700",
".3 c #574b11",
".4 c #8e8a72",
".5 c #343735",
".6 c #aaadc0",
".7 c #d7c68b",
".8 c #e6bb14",
"#` c #f7c113",
"#. c #e7cb78",
"## c #f2eab8",
"#a c #d89100",
"#b c #f29e19",
"#c c #c0840b",
"#d c #e4e6e7",
"#e c #8f8d94",
"#f c #858286",
"#g c #dacdcc",
"#h c #a48816",
"#i c #f8d646",
"#j c #e4b932",
"#k c #e7cda5",
"#l c #fdfefa",
"#m c #dca129",
"#n c #eea509",
"#o c #eda00c",
"#p c #d1a02d",
"#q c #f9f5e1",
"#r c #c2bebe",
"#s c #6c6673",
"#t c #62646c",
"#u c #bfb5ab",
"#v c #f5e7cd",
"#w c #b39943",
"#x c #e6c257",
"#y c #eec577",
"#z c #d3a14f",
"#A c #f4edee",
"#B c #e8d1bd",
"#C c #d58e00",
"#D c #eab432",
"#E c #ecae15",
"#F c #d8b629",
"#G c #eceeaf",
"#H c #fffdd7",
"#I c #fcf4d0",
"#J c #ece6ba",
"#K c #bda65c",
"#L c #e3c57c",
"#M c #f4cda1",
"#N c #d1a261",
"#O c #dec0a2",
"#P c #dab38f",
"#Q c #d6a50f",
"#R c #f5dc59",
"#S c #fce179",
"#T c #eac855",
"#U c #d8b75c",
"#V c #d5b46c",
"#W c #d7bb82",
"#X c #f1d3a5",
"#Y c #f5d093",
"#Z c #d7b16e",
"#0 c #d2ad7f",
"#1 c #e2ceab",
"#2 c #d5bb55",
"#3 c #e4c16a",
"#4 c #efc98d",
"#5 c #eec38e",
"#6 c #edc294",
"#7 c #eac280",
"#8 c #e1be77",
"a` c #d4b267",
"a. c #dac39a",
"a# c #f3f1f4",
"aa c #e3c694",
"ab c #dbb983",
"ac c #dab27d",
"ad c #dcba7d",
"ae c #dec68e",
"af c #e0c996",
"ag c #f0edeb",
"ah c #000000",
"ai c #000000",
"aj c #000000",
"ak c #000000",
"al c #000000",
"am c #000000",
"an c #000000",
"ao c #000000",
"ap c #000000",
"aq c #000000",
"ar c #000000",
"as c #000000",
"at c #000000",
"au c #000000",
"av c #000000",
"aw c #000000",
"ax c #000000",
"ay c #000000",
"az c #000000",
"aA c #000000",
"aB c #000000",
"aC c #000000",
"aD c #000000",
"aE c #000000",
"aF c #000000",
"aG c #000000",
"aH c #000000",
"aI c #000000",
"aJ c #000000",
"aK c #000000",
"aL c #000000",
"aM c #000000",
"aN c #000000",
"aO c #000000",
"aP c #000000",
"aQ c #000000",
"aR c #000000",
"aS c #000000",
"aT c #000000",
"aU c #000000",
"aV c #000000",
"aW c #000000",
"aX c #000000",
"aY c #000000",
"aZ c #000000",
"a0 c #000000",
"a1 c #000000",
"a2 c #000000",
"a3 c #000000",
"a4 c #000000",
"a5 c #000000",
"a6 c #000000",
"a7 c #000000",
"a8 c #000000",
/* pixels */
"```````````.`#`a`b`c`d`e````````",
"```````f`g`h`i`j`k`l`m`n`o``````",
"`````p`q`r`s`t`u`v`w`x`y`z`A````",
"```B`C`D`E`F`G`H`I`J`K`L`M`N`O``",
"```P`Q`R`S`T`U`V`W`X`Y`Z`0`1`2`3",
"`4`5`6`7`8.`...#.a.a.b.c.d.e.f.g",
".h.i.j.k.l.a.m.n.o.p.a.q.r.s.t.u",
".v.w.x.y.z.a.A.B.C.D.a.E.F.G.H.I",
".J.K.L.M.N.a.O.P.Q.R.a.S.T.U.V.W",
".X.Y.Z.0.1.a.2.3.4.5.a.6.7.8#`#.",
"###a#b#c#d#e.a.a.a.a#f#g#h#i#j#k",
"#l#m#n#o#p#q#r#s#t#u#v#w#x#y#z#A",
"``#B#C#D#E#F#G#H#I#J#K#L#M#N#O``",
"````#P#Q#R#S#T#U#V#W#X#Y#Z#0````",
"``````#1#2#3#4#5#6#7#8a`a.``````",
"````````a#aaabacadaeafag````````"
};
